HIERARCHY
ROOT Hips
{
  OFFSET 48.0515 84.18 13.2329
  CHANNELS 6 Xposition Yposition Zposition Zrotation Xrotation Yrotation
  JOINT spine
  {
    OFFSET 0 6.24479 0.359107
    CHANNELS 3 Zrotation Xrotation Yrotation
    JOINT spine1
    {
      OFFSET 0 9.06941 0
      CHANNELS 3 Zrotation Xrotation Yrotation
      JOINT spine2
      {
        OFFSET 0 8.69014 0
        CHANNELS 3 Zrotation Xrotation Yrotation
        JOINT Neck
        {
          OFFSET 0 22.3112 1.06372
          CHANNELS 3 Zrotation Xrotation Yrotation
          JOINT Head
          {
            OFFSET 0 6.74081 0
            CHANNELS 3 Zrotation Xrotation Yrotation
            End Site
            {
              OFFSET 0 16.3165 -5.38097
            }
          }
        }
        JOINT RightShoulder
        {
          OFFSET -3.65916 9.38468 -0.509514
          CHANNELS 3 Zrotation Xrotation Yrotation
          JOINT RightArm
          {
            OFFSET 0 12.3089 0
            CHANNELS 3 Zrotation Xrotation Yrotation
            JOINT RightArmRoll
            {
              OFFSET 0 6.21375 0
              CHANNELS 3 Zrotation Xrotation Yrotation
              JOINT RightForeArm
              {
                OFFSET 0 18.0985 0
                CHANNELS 3 Zrotation Xrotation Yrotation
                JOINT RightForeArmRoll
                {
                  OFFSET 0 6.97279 0
                  CHANNELS 3 Zrotation Xrotation Yrotation
                  JOINT RightHand
                  {
                    OFFSET 0 13.9929 0
                    CHANNELS 3 Zrotation Xrotation Yrotation
                    End Site
                    {
                      OFFSET 0 0 0
                    }
                  }
                }
              }
            }
          }
        }
        JOINT LeftShoulder
        {
          OFFSET 3.65916 9.38468 -0.509514
          CHANNELS 3 Zrotation Xrotation Yrotation
          JOINT LeftArm
          {
            OFFSET 0 12.3089 0
            CHANNELS 3 Zrotation Xrotation Yrotation
            JOINT LeftArmRoll
            {
              OFFSET 0 6.21375 0
              CHANNELS 3 Zrotation Xrotation Yrotation
              JOINT LeftForeArm
              {
                OFFSET 0 18.0985 0
                CHANNELS 3 Zrotation Xrotation Yrotation
                JOINT LeftForeArmRoll
                {
                  OFFSET 0 6.9728 0
                  CHANNELS 3 Zrotation Xrotation Yrotation
                  JOINT LeftHand
                  {
                    OFFSET 0 13.9929 0
                    CHANNELS 3 Zrotation Xrotation Yrotation
                    End Site
                    {
                      OFFSET 0 0 0
                    }
                  }
                }
              }
            }
          }
        }
      }
    }
  }
  JOINT RightUpLeg
  {
    OFFSET -5.53515 -1.015 -0.851454
    CHANNELS 3 Zrotation Xrotation Yrotation
    JOINT RightUpLegRoll
    {
      OFFSET 0 16.4075 0
      CHANNELS 3 Zrotation Xrotation Yrotation
      JOINT RightLeg
      {
        OFFSET 0 -20.3181 0
        CHANNELS 3 Zrotation Xrotation Yrotation
        JOINT RightLegRoll
        {
          OFFSET 0 20.3846 0
          CHANNELS 3 Zrotation Xrotation Yrotation
          JOINT RightFoot
          {
            OFFSET 0 16.9668 0
            CHANNELS 3 Zrotation Xrotation Yrotation
            JOINT RightToeBase
            {
              OFFSET 0 14.1834 0
              CHANNELS 3 Zrotation Xrotation Yrotation
              End Site
              {
                OFFSET 0.0060118 6.86889 -0.791746
              }
            }
          }
        }
      }
    }
  }
  JOINT LeftUpLeg
  {
    OFFSET 5.53515 -1.015 -0.851454
    CHANNELS 3 Zrotation Xrotation Yrotation
    JOINT LeftUpLegRoll
    {
      OFFSET 0 16.4076 0
      CHANNELS 3 Zrotation Xrotation Yrotation
      JOINT LeftLeg
      {
        OFFSET 0 20.3181 0
        CHANNELS 3 Zrotation Xrotation Yrotation
        JOINT LeftLegRoll
        {
          OFFSET 0 20.5731 0
          CHANNELS 3 Zrotation Xrotation Yrotation
          JOINT LeftFoot
          {
            OFFSET 0 16.7783 0
            CHANNELS 3 Zrotation Xrotation Yrotation
            JOINT LeftToeBase
            {
              OFFSET 0 14.1834 0
              CHANNELS 3 Zrotation Xrotation Yrotation
              End Site
              {
                OFFSET -0.0269423 6.8689 -0.791746
              }
            }
          }
        }
      }
    }
  }
}
MOTION
Frames: 11
Frame Time: 0.00208333
47.5239 84.0843 15.5055 -0.017949 -2.4691 -3.7806 -0.297873 -1.42419 0.0507846 -0.601938 1.16555 0.146071 -0.603853 2.81057 0.156373 5.80563 10.9296 -1.1506 -2.94611 -0.360084 0.362928 68.4149 -0.487846 -1.33239 115.866 28.9298 -44.4026 1.61222e-007 5.7503e-006 -5.22078e-006 -158.952 88.0909 151.536 2.22919e-006 -4.0913e-006 -3 8.03013 -4.95122 0.697598 -60.4994 -7.11078 4.45114 -121.097 25.1901 48.8381 1.48677e-007 -5.76219e-006 3.27581e-006 -23.0228 84.7397 27.9743 2.61569e-007 -2.17694e-006 3.00001 -8.03019 -4.95109 -0.697587 176.057 3.85372 1.03835 180 7.01587e-015 179.111 179.96 12.6358 178.847 -3.40267e-006 -1.63035e-006 0.0989098 -16.3109 69.6068 20.8092 8.1365 25.2327 -3.48771 -176.47 -2.62842 -3.23639 -1.07169e-005 -4.64205e-006 -1.13212 -1.06038 -12.2128 0.679281 3.15894e-006 -3.53574e-006 -0.46512 26.2083 74.6175 -27.4614 -8.14755 25.4089 3.25042 
47.5139 84.0831 15.5043 -0.0224594 -2.46439 -3.78358 -0.297831 -1.42446 0.050589 -0.601914 1.16274 0.145558 -0.60384 2.80776 0.155849 5.80176 10.946 -1.15186 -2.94234 -0.35485 0.361735 68.4178 -0.483919 -1.3307 115.79 28.9288 -44.2151 1.61222e-007 5.7503e-006 -5.22078e-006 -158.949 88.0905 151.542 2.22919e-006 -4.0913e-006 -3 8.03013 -4.95122 0.697598 -60.4751 -7.12354 4.45806 -121.058 25.2095 48.7273 1.48677e-007 -5.76219e-006 3.27581e-006 -22.9141 84.7814 27.8858 2.61569e-007 -2.17694e-006 3.00001 -8.03019 -4.95109 -0.697587 176.066 3.85842 1.03109 180 7.01587e-015 179.111 179.963 12.6315 178.847 -3.40267e-006 -1.63035e-006 0.0989109 -16.3057 69.6031 20.8048 8.1365 25.2327 -3.48771 -176.461 -2.62114 -3.2414 -1.07169e-005 -4.64205e-006 -1.13212 -1.06282 -12.2151 0.678722 3.15894e-006 -3.53574e-006 -0.46512 26.2131 74.6201 -27.4664 -8.14744 25.4073 3.25251 
47.5118 84.0846 15.5002 -0.0271012 -2.45956 -3.78662 -0.297774 -1.42476 0.0503903 -0.601876 1.15978 0.145063 -0.603814 2.8048 0.155341 5.79839 10.9628 -1.15348 -2.93872 -0.349421 0.360344 68.4217 -0.479568 -1.32892 115.711 28.9269 -44.0272 1.61222e-007 5.7503e-006 -5.22078e-006 -158.936 88.0904 151.539 2.22919e-006 -4.0913e-006 -3 8.03013 -4.95122 0.697598 -60.4496 -7.13677 4.46523 -121.021 25.2295 48.6189 1.48677e-007 -5.76219e-006 3.27581e-006 -22.8075 84.8195 27.7978 2.61569e-007 -2.17694e-006 3.00001 -8.03019 -4.95109 -0.697587 176.075 3.86338 1.02352 180 7.01587e-015 179.111 179.966 12.6277 178.846 -3.40267e-006 -1.63035e-006 0.0989126 -16.3005 69.5997 20.8006 8.1365 25.2327 -3.48771 -176.452 -2.61367 -3.24654 -1.07169e-005 -4.64205e-006 -1.13212 -1.0653 -12.2176 0.67815 3.15894e-006 -3.53574e-006 -0.46512 26.2185 74.6231 -27.4719 -8.14733 25.4057 3.2547 
47.5089 84.0839 15.4973 -0.0318349 -2.45464 -3.78968 -0.297708 -1.42508 0.0501894 -0.601828 1.1567 0.144579 -0.603778 2.80172 0.154846 5.79536 10.9799 -1.15534 -2.9352 -0.343856 0.358815 68.4264 -0.474922 -1.32707 115.632 28.9241 -43.8389 1.61222e-007 5.7503e-006 -5.22078e-006 -158.917 88.0906 151.528 2.22919e-006 -4.0913e-006 -3 8.03013 -4.95122 0.697598 -60.4232 -7.15035 4.47257 -120.984 25.2499 48.5121 1.48677e-007 -5.76219e-006 3.27581e-006 -22.7021 84.855 27.71 2.61569e-007 -2.17694e-006 3.00001 -8.03019 -4.95109 -0.697587 176.085 3.86854 1.01572 180 7.01587e-015 179.111 179.968 12.6241 178.846 -3.40267e-006 -1.63035e-006 0.0989147 -16.2954 69.5965 20.7965 8.1365 25.2327 -3.48771 -176.443 -2.60607 -3.25177 -1.07169e-005 -4.64205e-006 -1.13212 -1.06781 -12.2203 0.67757 3.15894e-006 -3.53574e-006 -0.46512 26.2242 74.6263 -27.4778 -8.14721 25.4039 3.25695 
47.5032 84.0854 15.4867 -0.0366208 -2.44967 -3.79277 -0.297636 -1.42541 0.0499873 -0.601774 1.15357 0.144103 -0.603737 2.79859 0.154357 5.79254 10.9971 -1.15735 -2.93174 -0.338214 0.357208 68.4316 -0.470107 -1.32518 115.552 28.9205 -43.6504 1.61222e-007 5.7503e-006 -5.22078e-006 -158.895 88.0908 151.514 2.22919e-006 -4.0913e-006 -3 8.03013 -4.95122 0.697598 -60.3963 -7.16411 4.48001 -120.948 25.2705 48.4063 1.48677e-007 -5.76219e-006 3.27581e-006 -22.597 84.8891 27.6217 2.61569e-007 -2.17694e-006 3.00001 -8.03019 -4.95109 -0.697587 176.094 3.87381 1.0078 180 7.01587e-015 179.111 179.971 12.6207 178.845 -3.40267e-006 -1.63035e-006 0.0989171 -16.2902 69.5934 20.7925 8.1365 25.2327 -3.48771 -176.433 -2.59838 -3.25705 -1.07169e-005 -4.64205e-006 -1.13212 -1.07033 -12.2231 0.676985 3.15894e-006 -3.53574e-006 -0.46512 26.2301 74.6296 -27.484 -8.14709 25.4021 3.25924 
47.5061 84.0836 15.4858 -0.0414194 -2.44468 -3.79585 -0.297562 -1.42574 0.0497848 -0.601719 1.15042 0.143628 -0.603695 2.79544 0.15387 5.78976 11.0144 -1.1594 -2.9283 -0.332552 0.355581 68.4369 -0.465249 -1.32329 115.472 28.9164 -43.4618 1.61222e-007 5.7503e-006 -5.22078e-006 -158.871 88.0911 151.499 2.22919e-006 -4.0913e-006 -3 8.03013 -4.95122 0.697598 -60.3693 -7.17793 4.48748 -120.912 25.291 48.3006 1.48677e-007 -5.76219e-006 3.27581e-006 -22.4912 84.9227 27.5326 2.61569e-007 -2.17694e-006 3.00001 -8.03019 -4.95109 -0.697587 176.104 3.87911 0.999846 180 7.01587e-015 179.111 179.974 12.6173 178.844 -3.40267e-006 -1.63035e-006 0.0989194 -16.2851 69.5903 20.7885 8.1365 25.2327 -3.48771 -176.424 -2.59068 -3.26234 -1.07169e-005 -4.64205e-006 -1.13212 -1.07285 -12.2259 0.676398 3.15894e-006 -3.53574e-006 -0.46512 26.2361 74.6329 -27.4902 -8.14697 25.4004 3.26154 
47.5078 84.0784 15.4956 -0.0461911 -2.43972 -3.79893 -0.297491 -1.42606 0.049583 -0.601667 1.1473 0.14315 -0.603656 2.79232 0.153379 5.78688 11.0315 -1.16137 -2.92482 -0.326929 0.353993 68.4419 -0.460476 -1.32141 115.392 28.9118 -43.2732 1.61222e-007 5.7503e-006 -5.22078e-006 -158.849 88.0913 151.486 2.22919e-006 -4.0913e-006 -3 8.03013 -4.95122 0.697598 -60.3425 -7.19164 4.49489 -120.876 25.3112 48.1943 1.48677e-007 -5.76219e-006 3.27581e-006 -22.3833 84.9571 27.4418 2.61569e-007 -2.17694e-006 3.00001 -8.03019 -4.95109 -0.697587 176.114 3.88435 0.991955 180 7.01587e-015 179.111 179.977 12.6138 178.844 -3.40267e-006 -1.63035e-006 0.0989217 -16.28 69.5871 20.7845 8.1365 25.2327 -3.48771 -176.415 -2.58302 -3.2676 -1.07169e-005 -4.64205e-006 -1.13212 -1.07537 -12.2286 0.675814 3.15894e-006 -3.53574e-006 -0.46512 26.242 74.6362 -27.4963 -8.14685 25.3986 3.26381 
47.5043 84.0818 15.4896 -0.0508963 -2.43482 -3.80199 -0.297427 -1.42637 0.0493828 -0.601622 1.14425 0.142663 -0.603623 2.78928 0.15288 5.78376 11.0485 -1.16317 -2.92127 -0.321403 0.352504 68.4464 -0.455914 -1.31958 115.314 28.9068 -43.0849 1.61222e-007 5.7503e-006 -5.22078e-006 -158.832 88.0914 151.478 2.22919e-006 -4.0913e-006 -3 8.03013 -4.95122 0.697598 -60.3164 -7.20512 4.50219 -120.839 25.3309 48.0868 1.48677e-007 -5.76219e-006 3.27581e-006 -22.2722 84.9933 27.3486 2.61569e-007 -2.17694e-006 3.00001 -8.03019 -4.95109 -0.697587 176.123 3.88945 0.984222 180 7.01587e-015 179.111 179.98 12.6102 178.843 -3.40267e-006 -1.63035e-006 0.0989237 -16.2748 69.5839 20.7803 8.1365 25.2327 -3.48771 -176.405 -2.57546 -3.27281 -1.07169e-005 -4.64205e-006 -1.13212 -1.07787 -12.2312 0.675236 3.15894e-006 -3.53574e-006 -0.46512 26.2476 74.6394 -27.5021 -8.14673 25.3969 3.26605 
47.4931 84.0832 15.4859 -0.0554955 -2.43003 -3.80501 -0.297375 -1.42666 0.049185 -0.601589 1.14133 0.142162 -0.603601 2.78636 0.152368 5.78025 11.0653 -1.16468 -2.9176 -0.316033 0.351172 68.45 -0.451691 -1.31783 115.237 28.9017 -42.8968 1.61222e-007 5.7503e-006 -5.22078e-006 -158.822 88.0912 151.477 2.22919e-006 -4.0913e-006 -3 8.03013 -4.95122 0.697598 -60.2912 -7.21821 4.50928 -120.801 25.3498 47.9773 1.48677e-007 -5.76219e-006 3.27581e-006 -22.1565 85.0324 27.2521 2.61569e-007 -2.17694e-006 3.00001 -8.03019 -4.95109 -0.697587 176.132 3.89434 0.97674 180 7.01587e-015 179.111 179.983 12.6062 178.843 -3.40267e-006 -1.63035e-006 0.0989252 -16.2696 69.5804 20.7761 8.1365 25.2327 -3.48771 -176.396 -2.56804 -3.27791 -1.07169e-005 -4.64205e-006 -1.13212 -1.08034 -12.2337 0.674668 3.15894e-006 -3.53574e-006 -0.46512 26.2528 74.6422 -27.5075 -8.14662 25.3952 3.26821 
47.4933 84.0851 15.4851 -0.0599491 -2.42538 -3.80797 -0.297339 -1.42692 0.0489906 -0.601571 1.13858 0.141642 -0.603594 2.78361 0.151837 5.77619 11.0816 -1.1658 -2.91377 -0.310876 0.350057 68.4524 -0.447933 -1.31618 115.163 28.8965 -42.7091 1.61222e-007 5.7503e-006 -5.22078e-006 -158.823 88.0907 151.487 2.22919e-006 -4.0913e-006 -3 8.03013 -4.95122 0.697598 -60.2674 -7.23077 4.51611 -120.762 25.3676 47.865 1.48677e-007 -5.76219e-006 3.27581e-006 -22.0348 85.0755 27.1513 2.61569e-007 -2.17694e-006 3.00001 -8.03019 -4.95109 -0.697587 176.141 3.89892 0.969604 180 7.01587e-015 179.111 179.985 12.6018 178.842 -3.40267e-006 -1.63035e-006 0.0989262 -16.2644 69.5766 20.7716 8.1365 25.2327 -3.48771 -176.388 -2.56084 -3.28287 -1.07169e-005 -4.64205e-006 -1.13212 -1.08276 -12.2359 0.674114 3.15894e-006 -3.53574e-006 -0.46512 26.2574 74.6448 -27.5122 -8.14651 25.3937 3.27026 
47.4917 84.0798 15.4722 -0.0642176 -2.42091 -3.81088 -0.297323 -1.42714 0.0488005 -0.601573 1.13605 0.141097 -0.603606 2.78108 0.151283 5.77145 11.0974 -1.16641 -2.90973 -0.305991 0.349218 68.4533 -0.444766 -1.31467 115.091 28.8915 -42.5219 1.61222e-007 5.7503e-006 -5.22078e-006 -158.837 88.0898 151.509 2.22919e-006 -4.0913e-006 -3 8.03013 -4.95122 0.697598 -60.2453 -7.24265 4.52258 -120.722 25.3842 47.7493 1.48677e-007 -5.76219e-006 3.27581e-006 -21.9053 85.1237 27.0451 2.61569e-007 -2.17694e-006 3.00001 -8.03019 -4.95109 -0.697587 176.15 3.90312 0.962908 180 7.01587e-015 179.111 179.987 12.5968 178.842 -3.40267e-006 -1.63035e-006 0.0989263 -16.2592 69.5724 20.7669 8.1365 25.2327 -3.48771 -176.379 -2.55391 -3.28765 -1.07169e-005 -4.64205e-006 -1.13212 -1.08513 -12.2377 0.673578 3.15894e-006 -3.53574e-006 -0.46512 26.2612 74.6469 -27.5162 -8.14641 25.3922 3.27219 
